# xmcd CD database file
#
# Track frame offsets:
#	150
#	17410
#	36707
#	54824
#	69467
#	83186
#	96940
#	111934
#	127608
#	142365
#	154894
#	176497
#	193580
#	209609
#	224436
#	237802
#	252228
#	258015
#	268782
#	284893
#
# Disc length: 3996 seconds
#
# Revision: 2
# Processed by: cddbd v1.5.2PL0 Copyright (c) Steve Scherf et al.
# Submitted via: CDex 1.70beta2
#
DISCID=2f0f9a14
DTITLE=Mamba - Lempikappaleita 1984-2004
DYEAR=2004
DGENRE=Pop
TTITLE0=Vie mut läpi yön
TTITLE1=Valokuvia
TTITLE2=Meille vai teille
TTITLE3=Sä onneni oot
TTITLE4=Mitä yhdestä särkyneestä sydämestä
TTITLE5=Pyyhi kyyneleet
TTITLE6=Älä jätä minua
TTITLE7=Se on kätkettynä kaikkeen
TTITLE8=Lauantai-ilta
TTITLE9=Sä oot historiaa
TTITLE10=Saa koskettaa
TTITLE11=Pieni lemmenleikki
TTITLE12=Sydänsuruja
TTITLE13=Vielä on kesää jäljellä
TTITLE14=Naisista ei ikinä tiedä
TTITLE15=Me pantiin puoliksi kaikki
TTITLE16=Tennissukat kirjahyllyssä
TTITLE17=Vastustamaton
TTITLE18=Pakko päästä pois
TTITLE19=Yö on hellä
EXTD=YEAR: 2004
EXTT0=
EXTT1=
EXTT2=
EXTT3=
EXTT4=
EXTT5=
EXTT6=
EXTT7=
EXTT8=
EXTT9=
EXTT10=
EXTT11=
EXTT12=
EXTT13=
EXTT14=
EXTT15=
EXTT16=
EXTT17=
EXTT18=
EXTT19=
PLAYORDER=
